<svg width="31" height="24" viewBox="0 0 31 24" fill="none" xmlns="http://www.w3.org/2000/svg">
<g clip-path="url(#clip0_628_814)">
<path d="M30.9994 5.29883V13.5587C30.9994 17.2489 30.0152 19.9369 28.0751 21.542C26.3873 22.9398 24.4716 23.75 22.3852 23.9497C22.0313 23.9843 21.6693 23.9996 21.3074 23.9996H14.625C15.5482 23.558 16.4064 23.0012 17.1833 22.3523C18.802 21.0121 19.831 19.0575 20.2621 16.5155C20.5671 16.6998 20.921 16.7958 21.283 16.7919C22.1696 16.7919 22.8122 16.3273 23.0481 15.5171C23.2067 14.9718 23.284 14.1231 23.284 12.9212V5.29883H30.9994Z" fill="#6A30F9"/>
<path d="M21.3191 10.5677C24.4099 10.5677 26.9155 8.20202 26.9155 5.28384C26.9155 2.36566 24.4099 0 21.3191 0C18.2283 0 15.7227 2.36566 15.7227 5.28384C15.7227 8.20202 18.2283 10.5677 21.3191 10.5677Z" fill="#6A30F9"/>
<path d="M19.3516 5.29883V13.5587C19.3516 17.2489 18.3674 19.9369 16.4314 21.542C14.4344 23.1971 12.2219 23.9996 9.66361 23.9996H9.65954C9.55786 23.9996 9.45618 23.9958 9.3545 23.9958L9.25282 23.9919C9.17961 23.9919 9.1064 23.9881 9.03319 23.9843C9.00066 23.9843 8.97219 23.9804 8.93965 23.9804C8.86237 23.9766 8.7851 23.9689 8.71189 23.9612C8.63868 23.9535 8.55733 23.9459 8.48413 23.9382L8.24416 23.9075L8.0164 23.8767C7.91472 23.8614 7.81304 23.8422 7.71543 23.8268C7.66256 23.8191 7.60562 23.8076 7.55274 23.7961C7.42666 23.7692 7.30058 23.7423 7.17856 23.7155L7.07282 23.6886C6.93046 23.654 6.79218 23.6156 6.64983 23.5734H6.64576C6.54408 23.5427 6.4424 23.5119 6.34479 23.4774L6.31225 23.4659C6.21464 23.4351 6.11703 23.4006 6.01535 23.366C6.01128 23.3622 6.00315 23.3622 5.99908 23.3622C5.94621 23.343 5.8974 23.3238 5.84453 23.3046C5.74285 23.2662 5.64117 23.2239 5.53949 23.1817L5.38901 23.1164L5.31986 23.0857C5.24259 23.0511 5.16938 23.0166 5.0921 22.982C5.06363 22.9705 5.03516 22.9551 5.00669 22.9436C4.93348 22.9091 4.85621 22.8707 4.783 22.8361C4.75859 22.8246 4.73826 22.8131 4.71386 22.8015C4.61624 22.7516 4.51863 22.7017 4.42102 22.6479C4.27867 22.5711 4.14445 22.4943 4.01023 22.4099C2.78195 21.6611 1.8587 20.7318 1.25269 19.6335C1.23235 19.5951 1.20795 19.5529 1.18761 19.5145C1.17135 19.4838 1.15508 19.4569 1.14288 19.4262C1.09814 19.3379 1.0534 19.2495 1.01273 19.1574C0.43112 17.8671 0.101679 16.1891 0.0203359 14.1654C0.0203359 14.1385 0.0162687 14.1116 0.0162687 14.0809C0.0162687 14.0694 0.0162687 14.0579 0.0162687 14.0463C0.00406717 13.7545 0 13.4665 0 13.167V5.29883H7.71543V13.7545C7.71543 14.6223 7.7805 15.2214 7.92286 15.6438C7.93912 15.6975 7.95946 15.7475 7.98386 15.7974C8.0042 15.8473 8.0286 15.8934 8.05301 15.9356C8.07741 15.9779 8.10181 16.0201 8.13028 16.0585C8.14655 16.0854 8.17095 16.1123 8.19129 16.1353C8.21163 16.1583 8.23196 16.1852 8.25636 16.2083C8.29704 16.2543 8.34177 16.3004 8.39058 16.3427C8.71595 16.6345 9.14708 16.7919 9.64327 16.7919C10.5258 16.7919 11.1725 16.3273 11.4044 15.5171C11.563 14.9718 11.6403 14.1231 11.6403 12.9212V5.29883H19.3516Z" fill="#6A30F9"/>
<path d="M9.67455 10.5677C12.7654 10.5677 15.271 8.20202 15.271 5.28384C15.271 2.36566 12.7654 0 9.67455 0C6.58373 0 4.07812 2.36566 4.07812 5.28384C4.07812 8.20202 6.58373 10.5677 9.67455 10.5677Z" fill="#6A30F9"/>
</g>
<defs>
<clipPath id="clip0_628_814">
<rect width="31" height="24" fill="white"/>
</clipPath>
</defs>
</svg>
